<?xml version="1.0" encoding="utf-8"?>
<!-- Generator: Adobe Illustrator 22.0.1, SVG Export Plug-In . SVG Version: 6.00 Build 0)  -->
<svg version="1.1" id="Layer_1" xmlns="http://www.w3.org/2000/svg" xmlns:xlink="http://www.w3.org/1999/xlink" x="0px" y="0px"
	 viewBox="0 0 368.3 361.7" style="enable-background:new 0 0 368.3 361.7;" xml:space="preserve">
<style type="text/css">
	.st0{fill:none;stroke:#000000;stroke-width:2;stroke-linecap:round;stroke-linejoin:round;stroke-miterlimit:10;}
	.st1{fill:#F0F2F5;stroke:#323233;stroke-width:2;stroke-linecap:round;stroke-linejoin:round;stroke-miterlimit:10;}
</style>
<g>
	<path class="st0" d="M311.4,61.7V34.1c0-11.6,7.4-21.5,17.9-25.4h-227c-48.5,0-43.7,54.1-43.7,54.1v285.5c0,0,215.8,0,217.2,0
		c19.6,0,35.5-15.9,35.5-35.5v-85.6v-129V62.9C311.4,62.9,311.4,62.5,311.4,61.7z"/>
</g>
<g>
	<path class="st1" d="M44.7,348.4c0.4,0,228.5,0,228.5,0c-19.6,0-35.5-15.9-35.5-35.5v-35.5H9.2v35.5
		C9.2,332.5,25.1,348.4,44.7,348.4z"/>
</g>
<path class="st1" d="M358.8,85.1V30.7c0-12.6-10.7-22.7-23.7-22.7s-23.7,10.2-23.7,22.7v54.5H358.8z"/>
<g>
	<path class="st0" d="M206.1,101.6"/>
	<path class="st0" d="M206.1,101.6"/>
	<polyline class="st0" points="150.6,138.4 187.9,60.3 222.9,139.1 	"/>
	<line class="st0" x1="167.1" y1="103.8" x2="206.4" y2="103.8"/>
	<g>
		<line class="st0" x1="207.8" y1="67.8" x2="245.1" y2="67.8"/>
		<line class="st0" x1="226.5" y1="86.5" x2="226.5" y2="49.1"/>
	</g>
</g>
<line class="st0" x1="94.6" y1="160.2" x2="278.9" y2="160.2"/>
<line class="st0" x1="94.6" y1="197.1" x2="278.9" y2="197.1"/>
<line class="st0" x1="94.6" y1="233.9" x2="278.9" y2="233.9"/>
</svg>
